<svg width="256" height="254" viewBox="0 0 256 254" fill="none" xmlns="http://www.w3.org/2000/svg">
<path d="M114.73 69.6717C117.021 69.6717 118.877 67.8295 118.877 65.5572V61.1685C118.877 58.8962 117.021 57.054 114.73 57.054C112.439 57.054 110.583 58.8962 110.583 61.1685V65.5572C110.583 67.8295 112.439 69.6717 114.73 69.6717Z" fill="black" fill-opacity="0.67"/>
<path d="M141.27 69.6717C143.561 69.6717 145.417 67.8295 145.417 65.5572V61.1685C145.417 58.8962 143.561 57.054 141.27 57.054C138.979 57.054 137.123 58.8962 137.123 61.1685V65.5572C137.123 67.8295 138.979 69.6717 141.27 69.6717Z" fill="black" fill-opacity="0.67"/>
<path d="M213.898 171.596L207.343 168.345V130.438C212.48 128.716 216.19 123.893 216.19 118.222C216.19 111.114 210.361 105.33 203.197 105.33H185.227V100.667C185.227 98.3951 183.371 96.5529 181.08 96.5529H171.957V74.3348C171.957 60.0438 164.993 47.3367 154.256 39.3777C154.257 39.3267 154.264 39.2762 154.264 39.2246V25.107C159.4 23.3856 163.11 18.5623 163.11 12.892C163.11 5.7833 157.281 0 150.117 0C142.952 0 137.123 5.7833 137.123 12.892C137.123 18.5623 140.833 23.3856 145.97 25.107V34.5478C140.479 32.0967 134.401 30.7214 128 30.7214C121.599 30.7214 115.521 32.0967 110.03 34.5478V25.107C115.167 23.3856 118.877 18.5623 118.877 12.892C118.877 5.7833 113.048 0 105.883 0C98.7187 0 92.8899 5.7833 92.8899 12.892C92.8899 18.5623 96.5999 23.3856 101.737 25.107V39.2246C101.737 39.2762 101.743 39.3267 101.744 39.3777C91.0072 47.3367 84.0432 60.0438 84.0432 74.3348V96.5529H74.9201C72.6294 96.5529 70.7732 98.3951 70.7732 100.667V105.33H52.8035C45.6388 105.33 39.8099 111.114 39.8099 118.222C39.8099 123.893 43.52 128.716 48.6566 130.438V168.345L42.1023 171.596C40.6979 172.293 39.8099 173.718 39.8099 175.276V188.443C39.8099 190.001 40.6974 191.426 42.1023 192.123L50.949 196.512C51.5445 196.807 52.1776 196.947 52.8007 196.947C54.3218 196.947 55.7864 196.113 56.513 194.672C57.5375 192.639 56.707 190.168 54.6585 189.152L48.1037 185.9V177.82L52.8035 175.488L57.5032 177.82V184.054C57.5032 186.326 59.3594 188.168 61.6501 188.168C63.9408 188.168 65.797 186.326 65.797 184.054V175.276C65.797 173.718 64.9095 172.293 63.5046 171.596L56.9503 168.345V131.114H70.7732V148.944C70.7732 163.235 77.7372 175.942 88.4743 183.901C88.4726 183.952 88.4665 184.002 88.4665 184.054V210.387C88.4665 216.057 92.1766 220.88 97.3132 222.602V228.216H88.1901C86.638 228.216 85.2165 229.075 84.5049 230.443L76.5318 245.771H74.9201C72.6294 245.771 70.7732 247.613 70.7732 249.886C70.7732 252.158 72.6294 254 74.9201 254H114.73C117.021 254 118.877 252.158 118.877 249.886V232.33C118.877 230.058 117.021 228.216 114.73 228.216H105.607V222.602C110.744 220.88 114.454 216.057 114.454 210.387V192.55C114.546 192.551 114.637 192.557 114.73 192.557H141.27C141.363 192.557 141.454 192.551 141.546 192.55V210.387C141.546 216.057 145.257 220.88 150.393 222.602V228.216H141.27C138.979 228.216 137.123 230.058 137.123 232.33V249.886C137.123 252.158 138.979 254 141.27 254H181.08C183.371 254 185.227 252.158 185.227 249.886C185.227 247.613 183.371 245.771 181.08 245.771H179.468L171.495 230.443C170.784 229.075 169.362 228.216 167.81 228.216H158.687V222.602C163.823 220.88 167.533 216.057 167.533 210.387V184.054C167.533 184.002 167.527 183.952 167.526 183.901C178.263 175.942 185.227 163.235 185.227 148.944V131.114H199.05V168.345L192.495 171.596C191.091 172.293 190.203 173.718 190.203 175.276V184.054C190.203 186.326 192.059 188.168 194.35 188.168C196.641 188.168 198.497 186.326 198.497 184.054V177.819L203.197 175.488L207.896 177.819V185.899L201.342 189.151C199.294 190.167 198.464 192.638 199.488 194.671C200.214 196.113 201.679 196.947 203.2 196.946C203.823 196.946 204.456 196.806 205.052 196.511L213.898 192.122C215.303 191.425 216.191 190.001 216.191 188.442V175.276C216.19 173.718 215.303 172.293 213.898 171.596ZM150.117 8.22894C152.708 8.22894 154.816 10.3207 154.816 12.892C154.816 15.4633 152.708 17.5551 150.117 17.5551C147.525 17.5551 145.417 15.4633 145.417 12.892C145.417 10.3207 147.525 8.22894 150.117 8.22894ZM105.883 8.22894C108.475 8.22894 110.583 10.3207 110.583 12.892C110.583 15.4633 108.475 17.5551 105.883 17.5551C103.292 17.5551 101.184 15.4633 101.184 12.892C101.184 10.3207 103.292 8.22894 105.883 8.22894ZM110.583 245.771H85.8651L90.7163 236.445H110.583V245.771ZM170.135 245.771H145.417V236.445H165.284L170.135 245.771ZM203.197 122.886C200.605 122.886 198.497 120.794 198.497 118.222C198.497 115.651 200.605 113.559 203.197 113.559C205.788 113.559 207.896 115.651 207.896 118.222C207.896 120.794 205.788 122.886 203.197 122.886ZM128 38.9503C147.664 38.9503 163.663 54.824 163.663 74.3348V78.9978H92.3369V74.3348C92.3369 54.824 108.336 38.9503 128 38.9503ZM92.3369 87.2268H163.663V96.5529H92.3369V87.2268ZM52.8035 113.559C55.395 113.559 57.5032 115.651 57.5032 118.222C57.5032 120.794 55.395 122.886 52.8035 122.886C50.2119 122.886 48.1037 120.794 48.1037 118.222C48.1037 115.651 50.2119 113.559 52.8035 113.559ZM64.914 122.886C65.4818 121.438 65.797 119.867 65.797 118.222C65.797 116.578 65.4818 115.007 64.914 113.559H70.7732V122.886H64.914ZM101.46 215.05C98.8685 215.05 96.7603 212.958 96.7603 210.387C96.7603 207.815 98.8685 205.724 101.46 205.724C104.052 205.724 106.16 207.815 106.16 210.387C106.16 212.958 104.052 215.05 101.46 215.05ZM106.16 198.371C104.701 197.807 103.117 197.495 101.46 197.495C99.803 197.495 98.2189 197.807 96.7603 198.371V188.731C99.735 190.059 102.88 191.073 106.16 191.719V198.371ZM79.067 148.944V104.782H123.853V118.497H110.307C100.703 118.497 92.8899 126.249 92.8899 135.778C92.8899 145.306 100.703 153.058 110.307 153.058H123.853V184.328H114.73C95.0656 184.328 79.067 168.455 79.067 148.944ZM110.307 144.829C105.276 144.829 101.184 140.769 101.184 135.778C101.184 130.786 105.276 126.726 110.307 126.726H145.693C150.724 126.726 154.816 130.786 154.816 135.778C154.816 140.769 150.724 144.829 145.693 144.829H110.307ZM154.54 215.05C151.948 215.05 149.84 212.958 149.84 210.387C149.84 207.815 151.948 205.724 154.54 205.724C157.131 205.724 159.24 207.815 159.24 210.387C159.24 212.958 157.131 215.05 154.54 215.05ZM159.24 198.371C157.781 197.807 156.197 197.495 154.54 197.495C152.883 197.495 151.299 197.807 149.84 198.371V191.719C153.12 191.073 156.265 190.059 159.24 188.731V198.371ZM176.933 148.944C176.933 168.455 160.934 184.328 141.27 184.328H132.147V153.058H145.693C155.297 153.058 163.11 145.306 163.11 135.778C163.11 126.249 155.297 118.497 145.693 118.497H132.147V104.782H176.933V148.944ZM185.227 113.559H191.086C190.518 115.007 190.203 116.578 190.203 118.222C190.203 119.867 190.518 121.438 191.086 122.886H185.227V113.559Z" fill="black" fill-opacity="0.67"/>
</svg>
