<svg width="242" height="277" viewBox="0 0 242 277" fill="none" xmlns="http://www.w3.org/2000/svg">
<path d="M189.524 2.90001C183.824 6.50001 182.224 8.90001 180.824 15.8C179.624 21.6 176.724 27.9 174.324 29.9C172.424 31.5 160.624 30.5 156.724 28.5C155.324 27.8 151.524 26.7 148.324 26.1C145.124 25.5 140.124 23.9 137.324 22.6C128.424 18.4 119.524 15.3 111.124 13.6L102.924 12L95.6235 16.2C87.1235 21 84.2235 23.1 69.5235 35.2C63.7235 40.1 57.0235 44.7 54.7235 45.5C48.2235 47.8 39.8235 54.9 39.1235 58.7C38.7235 60.6 39.0235 62.6 39.5235 63.3C40.1235 64 40.4235 65.6 40.1235 66.7C39.6235 68.4 40.3235 69.2 43.2235 70.6C47.0235 72.3 47.0235 72.3 51.9235 69.6C54.6235 68.1 57.0235 67 57.3235 67.2C57.5235 67.5 57.1235 69.3 56.2235 71.2C54.9235 74.4 54.9235 74.9 56.3235 76.1C57.7235 77.2 58.1235 77.1 59.4235 75.5C62.4235 71.4 65.5235 64.3 66.1235 59.8C66.6235 56.2 67.6235 54.4 70.3235 52.1C75.7235 47.3 84.4235 42.1 93.1235 38.4C97.6235 36.5 102.524 34.3 104.024 33.5C108.424 31.2 110.624 31.7 116.124 35.9C118.924 38 123.624 41 126.524 42.4C129.324 43.9 131.724 45.5 131.724 46.2C131.724 46.8 129.324 51.2 126.324 55.9C123.324 60.6 119.824 66.8 118.324 69.6C116.924 72.5 115.224 75.4 114.524 76.1C112.124 78.6 104.724 89.6 104.724 90.7C104.724 91.3 102.724 94.4 100.224 97.6C97.7235 100.7 95.7235 103.9 95.7235 104.6C95.7235 105.2 93.7235 107.4 91.3235 109.4C88.7235 111.5 85.7235 115.3 84.2235 118.5C81.7235 123.4 81.5235 124.7 82.0235 131.7C82.3235 136 82.9235 140.9 83.2235 142.6C83.8235 145.1 83.1235 146.7 79.8235 151.7C75.0235 158.9 70.9235 167.9 70.1235 172.9C69.8235 174.9 68.1235 179.4 66.3235 183C63.4235 189.1 62.6235 189.9 52.8235 196.5C44.1235 202.3 41.6235 204.7 37.6235 210.4C32.1235 218.4 17.6235 233.4 13.2235 235.7C5.42352 239.8 -0.97648 247.2 0.12352 250.8C0.52352 251.8 3.62352 255.2 7.02352 258.2C11.0235 261.7 14.5235 266 16.5235 269.8C18.3235 273.1 20.5235 276 21.4235 276.2C24.4235 277 39.7235 275.3 41.2235 274C43.1235 272.4 41.6235 268.7 38.6235 267.9C37.3235 267.5 34.7235 267.2 33.0235 267.1C28.8235 267 28.2235 265.1 28.5235 251.6L28.7235 244.7L34.7235 238.9C38.0235 235.7 44.1235 231.1 48.3235 228.5C52.4235 226 59.3235 221.2 63.5235 217.7C67.7235 214.3 74.4235 209.6 78.3235 207.2C82.9235 204.4 86.6235 201.3 88.8235 198.2C90.6235 195.6 94.9235 190.1 98.2235 186C101.524 181.9 106.924 174.1 110.124 168.7C115.624 159.7 116.224 159 118.624 159.5C121.224 160 143.324 162 147.524 162C150.524 162 150.324 164.4 147.124 166.9C145.724 168 143.224 170.8 141.524 173.1C135.124 182 116.324 199 113.024 199C111.324 199 101.924 206.7 100.524 209.3C99.3235 211.7 101.224 214.8 108.124 221.6C110.924 224.4 115.424 229.3 118.024 232.3C121.624 236.5 124.924 239 130.924 242C139.624 246.3 142.724 246.9 144.724 244.4C146.824 242 144.724 237.9 140.224 235.3C134.024 231.8 131.624 226 131.924 215.3L132.224 206.6L137.824 202C140.924 199.5 148.024 195.1 153.624 192.2C159.224 189.4 165.524 185.8 167.624 184.2C169.724 182.7 172.324 180.9 173.324 180.3C188.324 170.5 193.124 166.5 194.224 163.1C195.024 160.4 193.124 153.8 190.524 150.5C183.824 142 162.024 130 143.024 124.5C139.524 123.4 136.724 122.1 136.724 121.4C136.724 119 145.324 110.8 152.224 106.6C156.224 104.1 160.424 100.7 162.224 98.2C163.824 95.9 167.224 92.7 169.724 91.1C172.224 89.6 176.424 86.4 179.224 84.2C184.124 80.1 185.724 79.2 185.724 80.8C185.724 82.8 199.024 106.8 201.324 108.7C208.524 115.2 218.023 108.1 228.723 88.5C231.023 84.1 234.823 78.1 237.123 75.1C240.723 70.3 241.223 69 241.523 63.1C241.823 57.4 241.623 56.2 239.623 54.1C237.823 52.2 236.723 51.9 233.623 52.3C230.723 52.7 229.723 52.5 229.723 51.4C229.723 50.6 229.023 50 228.223 50C226.223 50 224.623 56.1 224.023 66.5C223.523 74.4 223.123 76 220.523 79.8C217.923 83.6 214.523 86 211.723 86C210.223 86 202.724 68.9 202.724 65.5C202.724 63.7 202.024 60.3 201.224 58C199.624 53.4 199.924 52 202.524 52C205.224 52 210.723 46.4 210.723 43.7C210.723 40.8 211.923 39.7 216.923 38.1C219.723 37.2 220.923 36.1 222.123 32.9C224.223 27.6 224.123 24.1 221.623 17.8C216.523 4.80001 210.624 8.08826e-06 199.924 8.08826e-06C195.224 8.08826e-06 193.224 0.600008 189.524 2.90001Z" fill="url(#paint0_linear_2588_2280)"/>
<defs>
<linearGradient id="paint0_linear_2588_2280" x1="0" y1="276.406" x2="241.635" y2="276.406" gradientUnits="userSpaceOnUse">
<stop stop-color="#1F005C"/>
<stop offset="0.1429" stop-color="#5B0060"/>
<stop offset="0.2857" stop-color="#870160"/>
<stop offset="0.4286" stop-color="#AC255E"/>
<stop offset="0.5714" stop-color="#CA485C"/>
<stop offset="0.7143" stop-color="#E16B5C"/>
<stop offset="0.8571" stop-color="#F39060"/>
<stop offset="1" stop-color="#FFB56B"/>
</linearGradient>
</defs>
</svg>
